<?xml version="1.0" encoding="UTF-8"?>
<svg width="182px" height="116px" viewBox="0 0 182 116" version="1.1" xmlns="http://www.w3.org/2000/svg" xmlns:xlink="http://www.w3.org/1999/xlink">
    <!-- Generator: Sketch 53 (72520) - https://sketchapp.com -->
    <title>fridge icon</title>
    <desc>Created with Sketch.</desc>
    <defs>
        <polygon id="path-1" points="0 0.469 3.1313 0.469 3.1313 7.854 0 7.854"></polygon>
        <polygon id="path-3" points="0.0952729153 0.1977 1.873 0.1977 1.873 6.8447 0.0952729153 6.8447"></polygon>
        <polygon id="path-5" points="0 0.108702499 62.2730769 0.108702499 62.2730769 111.11811 0 111.11811"></polygon>
    </defs>
    <g id="final" stroke="none" stroke-width="1" fill="none" fill-rule="evenodd">
        <g id="-Large-Desktop-(1200px-or-more)" transform="translate(-1040.000000, -929.000000)">
            <g id="fridge-icon" transform="translate(1038.000000, 929.000000)">
                <g id="Group-31-Copy-2" transform="translate(61.200178, 85.234478) scale(1, -1) rotate(-35.000000) translate(-61.200178, -85.234478) translate(25.700178, 29.234478)">
                    <g id="Group-3" transform="translate(0.000000, 0.531000)">
                        <mask id="mask-2" fill="white">
                            <use xlink:href="#path-1"></use>
                        </mask>
                        <g id="Clip-2"></g>
                        <path d="M0.6683,7.854 C1.4873,6.191 2.4353,3.022 3.1313,0.469 L2.1473,0.469 C1.5503,2.439 -1.2647,5.781 0.6683,7.854" id="Fill-1" fill="#000000" mask="url(#mask-2)"></path>
                    </g>
                    <path d="M5.8373,27.0959 C6.0323,29.5289 10.0533,30.2659 12.7313,31.0319 C11.9413,29.1789 8.2583,28.1379 5.8373,27.0959" id="Fill-4" fill="#000000"></path>
                    <path d="M37.8407,105.6257 C36.2367,103.0497 34.3337,100.7637 32.1777,98.7327 C32.1427,101.9877 35.2157,104.2217 37.8407,105.6257" id="Fill-6" fill="#000000"></path>
                    <path d="M64.4276,60.5749 C62.6106,62.4459 62.4256,63.1179 60.7366,65.2519 C62.4296,64.1559 64.1826,63.1199 64.4276,60.5749" id="Fill-8" fill="#000000"></path>
                    <path d="M62.4594,40.8806 C62.2764,41.6386 63.1364,41.3516 62.9534,42.1126 C66.6184,41.4026 66.9784,43.9946 68.8594,45.0656 C69.3634,41.7976 65.5704,39.9706 62.4594,40.8806" id="Fill-10" fill="#000000"></path>
                    <path d="M45.4725,73.3757 C47.3805,72.3277 49.0175,71.0127 50.1505,69.1897 C50.1575,69.9137 51.9995,69.5847 51.8755,68.6987 C49.1105,68.4717 47.0765,71.0717 45.4725,73.3757" id="Fill-12" fill="#000000"></path>
                    <path d="M0.1781,15.5251 C0.0191,18.6191 0.9711,22.6791 3.1311,23.6491 C2.6781,21.3771 2.2261,17.0171 0.1781,15.5251" id="Fill-14" fill="#000000"></path>
                    <path d="M16.1801,33.0036 C15.9031,33.7786 16.1581,33.5606 16.1801,34.4796 C19.5541,34.2326 22.9091,37.0556 24.7951,34.2326 C21.7671,34.6166 19.3001,33.2396 16.1801,33.0036" id="Fill-16" fill="#000000"></path>
                    <path d="M31.1952,86.1774 C30.5622,87.9224 29.3762,91.7524 31.1952,93.0724 C31.8532,91.7644 31.0652,91.1544 31.1952,89.8704 C31.0652,91.1264 32.8272,86.5414 31.1952,86.1774" id="Fill-18" fill="#000000"></path>
                    <path d="M30.4559,36.4484 C31.9949,39.0084 38.3719,39.0944 40.3059,38.4174 C37.8689,37.0994 33.3229,37.6234 31.6849,35.9564 C31.3639,36.2084 30.7779,36.1974 30.4559,36.4484" id="Fill-20" fill="#000000"></path>
                    <path d="M38.5809,76.0827 C36.0679,77.1007 34.3539,78.9177 33.6589,81.7457 C35.7829,80.9037 35.6099,78.0367 38.8249,77.8057 C38.6479,77.1337 39.3149,77.3117 39.3169,76.8227 C38.9659,76.6847 38.7189,76.4387 38.5809,76.0827" id="Fill-22" fill="#000000"></path>
                    <path d="M43.5028,109.322 C42.9408,108.914 42.0658,107.301 40.5518,107.842 C41.5208,109.12 42.9538,110.846 45.7188,111.531 C45.8138,109.999 44.1418,109.779 43.5028,109.322" id="Fill-24" fill="#000000"></path>
                    <path d="M47.6884,38.4172 L47.6884,39.1572 C50.4434,40.2022 53.0324,38.9942 56.3064,39.1572 C56.4784,39.4992 58.2674,40.2182 58.2754,39.1572 C55.6254,37.3182 51.5394,37.9672 47.6884,38.4172" id="Fill-26" fill="#000000"></path>
                    <g id="Group-30" transform="translate(69.000000, 50.531000)">
                        <mask id="mask-4" fill="white">
                            <use xlink:href="#path-3"></use>
                        </mask>
                        <g id="Clip-29"></g>
                        <path d="M1.8309,4.1357 C1.5389,4.0937 1.1329,4.1777 1.0909,3.8907 C2.3829,3.6677 1.6159,0.2947 0.1079,0.1977 C-0.0421,1.6077 1.2109,4.7017 0.3529,6.8447 L1.5829,6.8447 C1.5539,5.8267 2.0119,5.2997 1.8309,4.1357" id="Fill-28" fill="#000000" mask="url(#mask-4)"></path>
                    </g>
                </g>
                <g id="Group-30" transform="translate(121.000000, 0.000000)">
                    <g id="Group-3">
                        <mask id="mask-6" fill="white">
                            <use xlink:href="#path-5"></use>
                        </mask>
                        <g id="Clip-2"></g>
                        <path d="M58.1102308,2.80331667 C57.5783654,2.49894967 57.4196538,2.3298569 57.2609423,2.3298569 C43.2349615,2.32019445 29.2077692,2.31777884 15.1805769,2.34193495 C14.4996923,2.34314276 13.6637308,2.37575351 13.1645769,2.74775762 C10.2096346,4.94717152 7.33344231,7.2516645 3.72669231,10.0706826 C5.43253846,10.0706826 6.29151923,10.0694748 7.15171154,10.0706826 C19.26225,10.0803451 31.4006538,9.59239165 43.47,10.2941267 C50.3818269,10.6951181 53.5778654,6.2274454 58.1102308,2.80331667 L58.1102308,2.80331667 Z M50.715,106.865427 C51.0166731,106.947558 51.3183462,107.027273 51.6212308,107.106988 C53.9922115,105.102031 56.4916154,103.225101 58.6772308,101.034142 C59.6040577,100.102924 60.3636923,98.5206984 60.36975,97.2307621 C60.4848462,71.8970407 60.4763654,46.5621116 60.4921154,21.2283903 C60.49575,15.5384183 60.4921154,9.84844642 60.4921154,3.3758165 C57.7940192,5.67185484 55.7768077,7.58622663 53.5572692,9.22521876 C51.3280385,10.8702499 50.5926346,12.7930763 50.6083846,15.6072633 C50.7452885,40.9434002 50.7040962,66.2819528 50.715,91.6180897 C50.7162115,96.7005354 50.715,101.782981 50.715,106.865427 L50.715,106.865427 Z M48.4070192,12.5732557 C47.3554038,12.4923328 46.4746154,12.3655132 45.5938269,12.366721 C32.2741731,12.3824225 18.9557308,12.4959562 5.63728846,12.3775912 C2.74413462,12.3522273 1.87667308,13.1409243 1.88757692,16.0698528 C2.00025,46.1417953 1.99055769,76.21253 1.94573077,106.284472 C1.94209615,108.532199 2.68234615,109.214609 4.91642308,109.201323 C18.7376538,109.115569 32.5600962,109.163881 46.3825385,109.14214 C47.0391923,109.140933 47.6970577,108.917489 48.4070192,108.788253 L48.4070192,12.5732557 Z M62.2125,50.8860555 C62.2125,66.5790729 62.2561154,82.2720904 62.1349615,97.9639 C62.1240577,99.355292 61.3753269,101.083662 60.3806538,102.060776 C57.4390385,104.945016 54.2563269,107.599773 51.0421154,110.1881 C50.2812692,110.800457 49.0273269,111.04685 47.9987308,111.050473 C33.1598077,111.095162 18.3196731,111.010616 3.48196154,111.11811 C0.874730769,111.136227 -0.00726923077,110.469519 -1.21972744e-19,107.768865 C0.0860192308,76.0688011 0.04725,44.3675289 0.123576923,12.6674646 C0.126,11.639622 0.991038462,10.6093639 1.48292308,9.59480726 C1.56167308,9.43175351 1.81003846,9.35928518 1.94573077,9.21314071 C8.59101923,2.0037494 16.5944423,-0.545928107 26.5181538,0.247600137 C37.2511731,1.10514207 48.1077692,0.533850051 58.9074231,0.370796303 C61.6527692,0.329730914 62.2888269,1.21746799 62.2730769,3.79613283 C62.1700962,19.4915659 62.2209808,35.1882068 62.2209808,50.8860555 L62.2125,50.8860555 Z" id="Fill-1" fill="#000000" mask="url(#mask-6)"></path>
                    </g>
                    <path d="M6.03830712,96.5094644 C6.68560459,96.7369175 6.9557085,96.9159764 7.22700229,96.9159764 C18.8152928,96.9462229 30.4035834,96.9462229 41.990684,96.9946172 C43.5756109,97.0018763 44.0444256,96.2529746 44.0218178,94.7781585 C43.9754123,91.661566 44.009919,88.5425538 44.0158684,85.4247515 C44.0563245,63.7695151 44.0551346,42.1166985 44.1884017,20.4638819 C44.20625,17.6969381 43.6791309,16.6250046 40.6318353,16.6915467 C30.2358096,16.9189999 19.8302648,16.900852 9.4318593,16.7387311 C6.67489563,16.6963861 5.94668597,17.4840033 5.96334437,20.2545765 C6.07757333,40.9975805 6.03354758,61.7405844 6.03830712,82.4835883 C6.03830712,87.1911432 6.03830712,91.8974882 6.03830712,96.5094644 L6.03830712,96.5094644 Z M45.9494316,56.9894747 C45.9494316,69.8865538 45.8946969,82.783633 45.9994068,95.6795022 C46.0196348,98.0859085 45.5329718,99.0283873 42.9318831,98.9993508 C30.9414114,98.8638467 18.9497498,98.8928833 6.95808827,98.9812029 C4.76750989,98.996931 3.9940846,98.3109419 4.00003403,96.0581876 C4.06428782,69.9639847 4.07618667,43.8673621 4.03811035,17.7707394 C4.03573058,15.6341314 4.82105471,14.9880676 6.83553011,15.0001662 C19.0247126,15.0763872 31.2138951,15.1151026 43.4030776,15.0340422 C45.7150243,15.018314 45.9161148,16.1265433 45.9089755,17.9945631 C45.8601902,30.9920604 45.8839879,43.9907675 45.8839879,56.9894747 L45.9494316,56.9894747 Z" id="Fill-10" fill="#000000"></path>
                    <path d="M41.4113876,25 C33.6067776,32.4298155 25.8033888,39.8596309 18,47.2882542 C18.2381316,47.526695 18.4762632,47.7639436 18.7143947,48 C26.4762632,40.5332262 34.2381316,33.0652602 42,25.5972942 C41.8033888,25.3981961 41.6079988,25.1990981 41.4113876,25" id="Fill-14" fill="#000000"></path>
                    <path d="M11.8258615,87 C19.5513876,79.2964471 27.2756938,71.5941159 35,63.890563 C34.7011284,63.5937086 34.4010369,63.2968543 34.1021653,63 C26.4010369,70.7267637 18.7011284,78.4547491 11,86.1815128 C11.2756938,86.4551563 11.5501677,86.7263565 11.8258615,87" id="Fill-16" fill="#000000"></path>
                    <path d="M33,71 C25.3329332,78.6666667 17.6670668,86.3333333 10,94 C17.1628914,85.8566176 24.9776096,78.3480392 33,71" id="Fill-18" fill="#000000"></path>
                    <path d="M11.8033373,49 C19.2026222,41.1551891 26.6007151,33.3103783 34,25.4655674 C33.8462455,25.3111951 33.693683,25.1555975 33.5411204,25 C26.0274136,32.728419 18.5137068,40.4580632 11,48.1864822 C11.2681764,48.4572464 11.5351609,48.7292358 11.8033373,49" id="Fill-20" fill="#000000"></path>
                    <path d="M43,64 L43,44 C44.2454089,45.5087486 44.4184534,60.9159048 43,64" id="Fill-22" fill="#000000"></path>
                    <path d="M23,53.523753 C26.9304314,49.6828979 30.8596969,45.8420428 34.7889623,42 C34.8589195,42.067696 34.9300428,42.1365796 35,42.2054632 C31.1686747,46.1365796 27.3373494,50.0688836 23.5060241,54 C23.3381267,53.8420428 23.1690634,53.6828979 23,53.523753" id="Fill-24" fill="#000000"></path>
                    <path d="M22.6690296,93 C26.4464029,89.1200546 30.2237762,85.2377704 34,81.357825 C33.8896446,81.23855 33.7781397,81.119275 33.6666347,81 C29.778906,84.7805496 25.8888782,88.5587605 22,92.3393101 C22.2230099,92.5591503 22.4460197,92.7801598 22.6690296,93" id="Fill-26" fill="#000000"></path>
                    <path d="M18,28 C15.6768346,30.32287 13.3988147,32.6010693 11,35 C11.3221196,32.5624353 15.6536517,28.3042428 18,28" id="Fill-28" fill="#000000"></path>
                </g>
            </g>
        </g>
    </g>
</svg>